<svg xmlns="http://www.w3.org/2000/svg" width="151" height="30" viewBox="0 0 151 30">
  <g fill="none" fill-rule="evenodd" transform="translate(-2 -10)">
    <path fill="#0099E5" d="M88.696,34.6 L88.616,34.6 C87.7626624,36.2266748 86.6960064,37.4466626 85.416,38.26 C84.1359936,39.0733374 82.5760092,39.48 80.736,39.48 C79.1893256,39.48 77.8560056,39.1866696 76.736,38.6 C75.6159944,38.0133304 74.6960036,37.2266716 73.976,36.24 C73.2559964,35.2533284 72.7226684,34.1133398 72.376,32.82 C72.0293316,31.5266602 71.856,30.1733404 71.856,28.76 C71.856,27.2399924 72.0426648,25.8200066 72.416,24.5 C72.7893352,23.1799934 73.3559962,22.0400048 74.116,21.08 C74.8760038,20.1199952 75.8293276,19.3600028 76.976,18.8 C78.1226724,18.2399972 79.4693256,17.96 81.016,17.96 C81.8426708,17.96 82.655996,18.0733322 83.456,18.3 C84.256004,18.5266678 84.9959966,18.8533312 85.676,19.28 C86.3560034,19.7066688 86.9493308,20.2399968 87.456,20.88 C87.9626692,21.5200032 88.349332,22.239996 88.616,23.04 L88.696,23.04 L88.696,10.44 L90.216,10.44 L90.216,39 L88.696,39 L88.696,34.6 Z M81.056,38.16 C82.3626732,38.16 83.4893286,37.893336 84.436,37.36 C85.3826714,36.826664 86.1693302,36.1200044 86.796,35.24 C87.4226698,34.3599956 87.8893318,33.353339 88.196,32.22 C88.5026682,31.086661 88.656,29.9333392 88.656,28.76 C88.656,27.559994 88.5026682,26.393339 88.196,25.26 C87.8893318,24.126661 87.4293364,23.1133378 86.816,22.22 C86.2026636,21.3266622 85.4093382,20.613336 84.436,20.08 C83.4626618,19.546664 82.3226732,19.28 81.016,19.28 C79.6559932,19.28 78.4960048,19.5399974 77.536,20.06 C76.5759952,20.5800026 75.7826698,21.2799956 75.156,22.16 C74.5293302,23.0400044 74.0760014,24.0533276 73.796,25.2 C73.5159986,26.3466724 73.376,27.5333272 73.376,28.76 C73.376,29.960006 73.5293318,31.126661 73.836,32.26 C74.1426682,33.393339 74.6093302,34.3999956 75.236,35.28 C75.8626698,36.1600044 76.6559952,36.8599974 77.616,37.38 C78.5760048,37.9000026 79.72266,38.16 81.056,38.16 Z M94.096,28.72 C94.096,27.253326 94.3026646,25.8733398 94.716,24.58 C95.1293354,23.2866602 95.735996,22.1466716 96.536,21.16 C97.336004,20.1733284 98.3226608,19.3933362 99.496,18.82 C100.669339,18.2466638 102.015992,17.96 103.536,17.96 C105.056008,17.96 106.402661,18.2466638 107.576,18.82 C108.749339,19.3933362 109.735996,20.1733284 110.536,21.16 C111.336004,22.1466716 111.942665,23.2866602 112.356,24.58 C112.769335,25.8733398 112.976,27.253326 112.976,28.72 C112.976,30.186674 112.769335,31.5733268 112.356,32.88 C111.942665,34.1866732 111.336004,35.3266618 110.536,36.3 C109.735996,37.2733382 108.749339,38.0466638 107.576,38.62 C106.402661,39.1933362 105.056008,39.48 103.536,39.48 C102.015992,39.48 100.669339,39.1933362 99.496,38.62 C98.3226608,38.0466638 97.336004,37.2733382 96.536,36.3 C95.735996,35.3266618 95.1293354,34.1866732 94.716,32.88 C94.3026646,31.5733268 94.096,30.186674 94.096,28.72 Z M95.616,28.72 C95.616,29.9466728 95.7893316,31.126661 96.136,32.26 C96.4826684,33.393339 96.98933,34.3999956 97.656,35.28 C98.32267,36.1600044 99.1493284,36.8599974 100.136,37.38 C101.122672,37.9000026 102.255994,38.16 103.536,38.16 C104.816006,38.16 105.949328,37.9000026 106.936,37.38 C107.922672,36.8599974 108.74933,36.1600044 109.416,35.28 C110.08267,34.3999956 110.589332,33.393339 110.936,32.26 C111.282668,31.126661 111.456,29.9466728 111.456,28.72 C111.456,27.4933272 111.282668,26.313339 110.936,25.18 C110.589332,24.046661 110.08267,23.0400044 109.416,22.16 C108.74933,21.2799956 107.922672,20.5800026 106.936,20.06 C105.949328,19.5399974 104.816006,19.28 103.536,19.28 C102.255994,19.28 101.122672,19.5399974 100.136,20.06 C99.1493284,20.5800026 98.32267,21.2799956 97.656,22.16 C96.98933,23.0400044 96.4826684,24.046661 96.136,25.18 C95.7893316,26.313339 95.616,27.4933272 95.616,28.72 Z M132.016,24.8 C131.936,23.8933288 131.702669,23.0933368 131.316,22.4 C130.929331,21.7066632 130.429336,21.1333356 129.816,20.68 C129.202664,20.2266644 128.489337,19.8800012 127.676,19.64 C126.862663,19.3999988 125.989338,19.28 125.056,19.28 C123.775994,19.28 122.642672,19.5399974 121.656,20.06 C120.669328,20.5800026 119.84267,21.273329 119.176,22.14 C118.50933,23.006671 118.002668,23.9933278 117.656,25.1 C117.309332,26.2066722 117.136,27.3466608 117.136,28.52 C117.136,29.9066736 117.295998,31.1866608 117.616,32.36 C117.936002,33.5333392 118.42933,34.553329 119.096,35.42 C119.76267,36.286671 120.589328,36.9599976 121.576,37.44 C122.562672,37.9200024 123.72266,38.16 125.056,38.16 C126.016005,38.16 126.902663,38.0000016 127.716,37.68 C128.529337,37.3599984 129.24933,36.9200028 129.876,36.36 C130.50267,35.7999972 131.015998,35.1266706 131.416,34.34 C131.816002,33.5533294 132.082666,32.693338 132.216,31.76 L133.736,31.76 C133.575999,32.9866728 133.242669,34.0799952 132.736,35.04 C132.229331,36.0000048 131.589337,36.8066634 130.816,37.46 C130.042663,38.1133366 129.162672,38.6133316 128.176,38.96 C127.189328,39.3066684 126.149339,39.48 125.056,39.48 C123.375992,39.48 121.942673,39.180003 120.756,38.58 C119.569327,37.979997 118.596004,37.1733384 117.836,36.16 C117.075996,35.1466616 116.516002,33.9800066 116.156,32.66 C115.795998,31.3399934 115.616,29.9600072 115.616,28.52 C115.616,27.0799928 115.822665,25.7200064 116.236,24.44 C116.649335,23.1599936 117.255996,22.0400048 118.056,21.08 C118.856004,20.1199952 119.842661,19.3600028 121.016,18.8 C122.189339,18.2399972 123.535992,17.96 125.056,17.96 C126.176006,17.96 127.222662,18.0999986 128.196,18.38 C129.169338,18.6600014 130.035996,19.0799972 130.796,19.64 C131.556004,20.2000028 132.175998,20.913329 132.656,21.78 C133.136002,22.646671 133.429333,23.6533276 133.536,24.8 L132.016,24.8 Z M138.016,32.16 C138.069334,33.1200048 138.282665,33.966663 138.656,34.7 C139.029335,35.433337 139.515997,36.0599974 140.116,36.58 C140.716003,37.1000026 141.415996,37.493332 142.216,37.76 C143.016004,38.026668 143.882662,38.16 144.816,38.16 C145.48267,38.16 146.195996,38.1000006 146.956,37.98 C147.716004,37.8599994 148.422663,37.6400016 149.076,37.32 C149.729337,36.9999984 150.269331,36.5533362 150.696,35.98 C151.122669,35.4066638 151.336,34.6800044 151.336,33.8 C151.336,32.6533276 150.989337,31.7866696 150.296,31.2 C149.602663,30.6133304 148.729339,30.1600016 147.676,29.84 C146.622661,29.5199984 145.489339,29.260001 144.276,29.06 C143.062661,28.859999 141.929339,28.560002 140.876,28.16 C139.822661,27.759998 138.949337,27.193337 138.256,26.46 C137.562663,25.726663 137.216,24.6533404 137.216,23.24 C137.216,22.2266616 137.442664,21.3800034 137.896,20.7 C138.349336,20.0199966 138.92933,19.480002 139.636,19.08 C140.34267,18.679998 141.135996,18.3933342 142.016,18.22 C142.896004,18.0466658 143.775996,17.96 144.656,17.96 C145.722672,17.96 146.722662,18.0799988 147.656,18.32 C148.589338,18.5600012 149.395997,18.946664 150.076,19.48 C150.756003,20.013336 151.289331,20.6933292 151.676,21.52 C152.062669,22.3466708 152.256,23.3466608 152.256,24.52 L150.736,24.52 C150.736,23.586662 150.582668,22.78667 150.276,22.12 C149.969332,21.45333 149.542669,20.9133354 148.996,20.5 C148.449331,20.0866646 147.80267,19.780001 147.056,19.58 C146.30933,19.379999 145.509338,19.28 144.656,19.28 C143.962663,19.28 143.26267,19.346666 142.556,19.48 C141.84933,19.613334 141.216003,19.8399984 140.656,20.16 C140.095997,20.4800016 139.636002,20.8933308 139.276,21.4 C138.915998,21.9066692 138.736,22.5199964 138.736,23.24 C138.736,24.0666708 138.935998,24.7333308 139.336,25.24 C139.736002,25.7466692 140.262663,26.1533318 140.916,26.46 C141.569337,26.7666682 142.302663,27.0133324 143.116,27.2 C143.929337,27.3866676 144.749329,27.5733324 145.576,27.76 C146.589338,27.9466676 147.542662,28.1666654 148.436,28.42 C149.329338,28.6733346 150.102663,29.0199978 150.756,29.46 C151.409337,29.9000022 151.922665,30.4666632 152.296,31.16 C152.669335,31.8533368 152.856,32.733328 152.856,33.8 C152.856,34.9200056 152.602669,35.8399964 152.096,36.56 C151.589331,37.2800036 150.949337,37.8599978 150.176,38.3 C149.402663,38.7400022 148.542671,39.0466658 147.596,39.22 C146.649329,39.3933342 145.722671,39.48 144.816,39.48 C143.642661,39.48 142.556005,39.3266682 141.556,39.02 C140.555995,38.7133318 139.68267,38.2466698 138.936,37.62 C138.18933,36.9933302 137.602669,36.2266712 137.176,35.32 C136.749331,34.4133288 136.522667,33.360006 136.496,32.16 L138.016,32.16 Z"/>
    <path fill="#4C4C4C" d="M2.4,18.36 L4.72,18.36 L4.72,21.84 L4.84,21.84 C5.50667,20.5599936 6.3799946,19.5600036 7.46,18.84 C8.5400054,18.1199964 9.9199916,17.76 11.6,17.76 C12.9600068,17.76 14.1933278,18.09333 15.3,18.76 C16.4066722,19.42667 17.1466648,20.4399932 17.52,21.8 C18.1333364,20.4399932 19.039994,19.42667 20.24,18.76 C21.440006,18.09333 22.7199932,17.76 24.08,17.76 C28.6400228,17.76 30.92,20.1733092 30.92,25 L30.92,39 L28.4,39 L28.4,25.12 C28.4,23.4133248 28.0400036,22.1133378 27.32,21.22 C26.5999964,20.3266622 25.3333424,19.88 23.52,19.88 C22.4266612,19.88 21.5200036,20.0866646 20.8,20.5 C20.0799964,20.9133354 19.5066688,21.4666632 19.08,22.16 C18.6533312,22.8533368 18.3533342,23.6466622 18.18,24.54 C18.0066658,25.4333378 17.92,26.3599952 17.92,27.32 L17.92,39 L15.4,39 L15.4,25 C15.4,24.3066632 15.3266674,23.6466698 15.18,23.02 C15.0333326,22.3933302 14.793335,21.846669 14.46,21.38 C14.126665,20.913331 13.6800028,20.546668 13.12,20.28 C12.5599972,20.013332 11.880004,19.88 11.08,19.88 C10.013328,19.88 9.0866706,20.0733314 8.3,20.46 C7.5133294,20.8466686 6.8733358,21.3799966 6.38,22.06 C5.8866642,22.7400034 5.5200012,23.5399954 5.28,24.46 C5.0399988,25.3800046 4.92,26.3866612 4.92,27.48 L4.92,39 L2.4,39 L2.4,18.36 Z M53.88,39 L51.56,39 L51.56,35.08 L51.48,35.08 C51.213332,35.74667 50.8200026,36.3599972 50.3,36.92 C49.7799974,37.4800028 49.18667,37.9533314 48.52,38.34 C47.85333,38.7266686 47.1400038,39.0266656 46.38,39.24 C45.6199962,39.4533344 44.8666704,39.56 44.12,39.56 C42.5466588,39.56 41.1800058,39.2733362 40.02,38.7 C38.8599942,38.1266638 37.8933372,37.340005 37.12,36.34 C36.3466628,35.339995 35.7733352,34.1800066 35.4,32.86 C35.0266648,31.5399934 34.84,30.146674 34.84,28.68 C34.84,27.213326 35.0266648,25.8200066 35.4,24.5 C35.7733352,23.1799934 36.3466628,22.020005 37.12,21.02 C37.8933372,20.019995 38.8599942,19.2266696 40.02,18.64 C41.1800058,18.0533304 42.5466588,17.76 44.12,17.76 C44.8933372,17.76 45.646663,17.8533324 46.38,18.04 C47.113337,18.2266676 47.7999968,18.5133314 48.44,18.9 C49.0800032,19.2866686 49.6466642,19.7599972 50.14,20.32 C50.6333358,20.8800028 51.013332,21.5333296 51.28,22.28 L51.36,22.28 L51.36,10.44 L53.88,10.44 L53.88,39 Z M37.36,28.68 C37.36,29.746672 37.4866654,30.8066614 37.74,31.86 C37.9933346,32.9133386 38.3933306,33.8533292 38.94,34.68 C39.4866694,35.5066708 40.1866624,36.1799974 41.04,36.7 C41.8933376,37.2200026 42.919994,37.48 44.12,37.48 C45.45334,37.48 46.5799954,37.2200026 47.5,36.7 C48.4200046,36.1799974 49.1666638,35.5066708 49.74,34.68 C50.3133362,33.8533292 50.7266654,32.9133386 50.98,31.86 C51.2333346,30.8066614 51.36,29.746672 51.36,28.68 C51.36,27.613328 51.2333346,26.5533386 50.98,25.5 C50.7266654,24.4466614 50.3133362,23.5066708 49.74,22.68 C49.1666638,21.8533292 48.4200046,21.1800026 47.5,20.66 C46.5799954,20.1399974 45.45334,19.88 44.12,19.88 C42.919994,19.88 41.8933376,20.1399974 41.04,20.66 C40.1866624,21.1800026 39.4866694,21.8533292 38.94,22.68 C38.3933306,23.5066708 37.9933346,24.4466614 37.74,25.5 C37.4866654,26.5533386 37.36,27.613328 37.36,28.68 Z M60.16,39 L60.16,34.76 L63.52,34.76 L63.52,39 L60.16,39 Z"/>
  </g>
</svg>
